<?xml version="1.0" standalone="no"?>
<!DOCTYPE svg PUBLIC "-//W3C//DTD SVG 20010904//EN"
 "http://www.w3.org/TR/2001/REC-SVG-20010904/DTD/svg10.dtd">
<svg version="1.0" xmlns="http://www.w3.org/2000/svg"
 width="512.000000pt" height="512.000000pt" viewBox="0 0 512.000000 512.000000"
 preserveAspectRatio="xMidYMid meet">

<g transform="translate(0.000000,512.000000) scale(0.100000,-0.100000)"
fill="#000000" stroke="none">
<path d="M1100 4044 c-40 -34 -55 -65 -70 -141 -12 -59 -14 -61 -47 -68 -97
-18 -99 -136 -2 -151 32 -5 39 -11 39 -29 0 -12 3 -43 6 -69 l7 -46 -37 0
c-46 0 -76 -29 -76 -73 0 -45 28 -69 89 -75 l48 -4 13 -57 c7 -31 15 -62 17
-68 4 -9 -6 -13 -31 -13 -70 0 -104 -82 -53 -131 l22 -22 -35 20 c-94 55 -390
223 -429 243 -25 12 -70 25 -101 27 -76 7 -115 -13 -142 -75 -21 -48 -21 -56
8 -184 5 -22 3 -28 -10 -28 -27 0 -66 -46 -66 -77 0 -16 7 -39 16 -52 15 -21
22 -23 75 -18 l59 5 30 -53 c34 -60 36 -65 15 -65 -50 0 -74 -91 -34 -131 21
-21 53 -22 124 -4 15 4 28 -6 52 -40 34 -46 41 -65 22 -65 -15 0 -40 -66 -32
-86 7 -19 5 -19 -222 6 -189 20 -272 11 -318 -38 -70 -73 -36 -167 112 -313
89 -87 97 -98 84 -114 -19 -26 -16 -79 5 -97 39 -35 85 -30 122 13 14 18 17
17 72 -17 l57 -35 -20 -38 c-25 -49 -17 -86 22 -106 43 -23 59 -19 101 26 l40
41 56 -24 57 -24 -3 -46 c-3 -39 0 -48 24 -67 39 -31 71 -27 108 14 l32 35 62
-21 62 -21 -6 -37 c-14 -85 77 -114 140 -45 30 32 36 35 70 29 28 -6 40 -14
48 -34 86 -216 198 -337 394 -427 93 -42 268 -87 409 -106 137 -18 813 -18
950 0 140 18 316 64 407 105 200 91 309 210 396 428 8 20 20 28 49 34 34 6 40
4 63 -23 64 -77 159 -53 147 38 l-5 39 62 21 61 20 25 -30 c34 -41 77 -48 113
-19 25 19 28 27 25 67 l-3 46 57 24 56 24 40 -41 c48 -51 80 -54 116 -10 31
37 32 44 6 91 l-19 37 57 35 57 35 27 -26 c35 -34 84 -35 110 -4 21 28 23 70
4 96 -13 18 -8 26 69 97 113 106 159 176 160 245 0 44 -4 56 -29 82 -17 17
-46 36 -65 41 -51 14 -188 12 -311 -5 -157 -21 -157 -21 -152 17 4 27 0 36
-28 59 l-32 27 33 46 c26 35 39 45 54 41 69 -17 90 -16 118 5 20 16 27 30 27
56 0 36 -28 74 -55 74 -21 0 -19 5 15 66 l31 52 53 -5 c46 -5 57 -2 75 16 29
29 27 76 -4 106 -13 14 -33 25 -43 25 -18 0 -18 3 -6 52 30 114 5 206 -63 235
-43 17 -86 12 -158 -21 -41 -19 -299 -163 -445 -249 l-35 -20 23 22 c50 49 16
131 -54 131 -25 0 -35 4 -31 13 2 6 10 37 17 68 l13 57 48 4 c61 6 89 30 89
75 0 44 -30 73 -76 73 l-37 0 7 46 c3 26 6 57 6 69 0 18 7 24 39 29 97 15 95
133 -3 151 -30 6 -35 11 -41 43 -22 127 -72 192 -148 192 -85 0 -104 -20 -418
-435 -133 -176 -273 -359 -311 -407 l-69 -88 -62 32 c-160 81 -339 122 -527
122 -188 0 -367 -41 -527 -122 l-61 -31 -94 112 c-52 61 -124 151 -162 200
-74 96 -99 117 -134 117 -30 0 -72 -43 -72 -74 0 -27 64 -116 225 -309 59 -71
105 -130 103 -131 -47 -31 -152 -123 -198 -173 l-60 -66 -102 44 -101 43 -28
64 c-56 125 -114 334 -144 517 -17 110 -33 415 -20 415 4 0 25 -16 46 -35 43
-39 63 -43 97 -19 30 21 44 58 33 87 -10 25 -88 104 -123 124 -40 22 -103 16
-138 -13z m2843 -214 c8 -92 -7 -274 -33 -403 -26 -129 -89 -338 -132 -441
l-33 -80 -104 -45 -103 -46 -66 73 c-52 58 -113 112 -190 168 -2 1 30 44 70
96 41 51 166 215 278 363 234 309 293 385 301 385 3 0 9 -32 12 -70z m-3088
-813 c261 -149 423 -234 572 -300 l62 -28 -30 -51 c-17 -28 -46 -82 -65 -120
l-35 -69 -191 3 -191 3 -105 110 c-109 114 -219 259 -291 381 -46 79 -104 211
-116 262 l-7 33 59 -32 c32 -18 184 -104 338 -192z m3781 151 c-81 -216 -248
-468 -425 -643 l-71 -70 -190 -3 -189 -3 -35 69 c-19 38 -48 91 -64 119 l-30
50 142 71 c77 39 260 137 406 218 307 170 462 253 472 254 4 0 -3 -28 -16 -62z
m-1906 -39 c216 -33 466 -170 630 -345 163 -175 269 -368 327 -600 25 -99 28
-126 27 -284 0 -163 -2 -180 -27 -255 -83 -248 -288 -377 -680 -427 -139 -18
-755 -18 -894 0 -392 50 -597 179 -680 427 -25 75 -27 92 -27 255 -1 158 2
185 27 284 95 376 338 688 662 846 212 104 405 134 635 99z m-1586 -53 c3 -13
9 -32 13 -42 5 -14 -7 -10 -53 16 -84 47 -85 50 -22 50 51 0 56 -2 62 -24z
m2941 16 c-6 -5 -37 -24 -69 -42 -46 -26 -58 -30 -53 -16 4 10 10 29 13 42 6
22 11 24 62 24 32 0 52 -4 47 -8z m-3520 -746 c299 -33 473 -46 618 -46 64 0
117 -3 117 -7 0 -5 -9 -42 -20 -83 -27 -101 -44 -259 -36 -347 3 -40 2 -73 -2
-73 -30 0 -277 80 -390 125 -255 104 -440 217 -594 364 -48 46 -88 88 -88 94
0 12 91 6 395 -27z m4369 -1 c-34 -46 -170 -160 -264 -222 -151 -101 -373
-206 -570 -271 -82 -27 -208 -62 -223 -62 -2 0 -7 71 -10 158 -3 88 -13 188
-22 227 -9 39 -18 82 -21 96 l-6 26 184 6 c180 6 511 34 718 61 58 7 136 14
173 15 l68 1 -27 -35z"/>
<path d="M2512 2974 c-30 -25 -33 -78 -5 -106 16 -15 41 -22 99 -28 91 -10
161 -26 222 -52 58 -24 107 -23 132 2 21 21 26 60 10 89 -22 42 -206 100 -340
108 -83 5 -98 3 -118 -13z"/>
<path d="M3041 2764 c-31 -40 -26 -62 28 -115 57 -58 96 -65 136 -24 37 36 31
61 -24 116 -40 40 -54 49 -84 49 -27 0 -41 -7 -56 -26z"/>
<path d="M1704 2391 c-55 -25 -110 -92 -123 -150 -36 -170 138 -314 294 -242
83 38 126 106 126 196 0 153 -159 259 -297 196z m134 -160 c21 -27 11 -73 -20
-91 -25 -13 -31 -13 -55 0 -23 13 -28 23 -28 55 0 32 5 42 25 52 29 14 59 8
78 -16z"/>
<path d="M3265 2391 c-84 -38 -128 -106 -129 -196 -2 -112 77 -201 189 -212
129 -13 235 82 235 212 0 154 -158 259 -295 196z m108 -142 c28 -15 37 -28 37
-56 0 -30 -34 -63 -63 -63 -54 0 -80 78 -37 112 26 21 34 22 63 7z"/>
<path d="M1782 1687 c-33 -35 -28 -76 15 -127 72 -84 33 -80 768 -80 l650 0
51 30 c84 48 118 126 74 170 -31 31 -76 26 -121 -15 l-39 -35 -620 0 -621 0
-39 40 c-46 47 -85 53 -118 17z"/>
<path d="M1376 3779 c-30 -23 -33 -56 -11 -99 36 -69 107 -91 144 -44 26 34
26 58 0 100 -40 65 -86 80 -133 43z"/>
</g>
</svg>
